<svg xmlns="http://www.w3.org/2000/svg" xmlns:xlink="http://www.w3.org/1999/xlink" width="228" height="48" viewBox="0 0 228 48"><defs><path id="fvpva" d="M257.874 134.005c.106.024.214.035.321.033.814 0 1.358-.533 1.358-1.55 0-.73-.31-1.401-1.219-1.401a1.66 1.66 0 0 0-.46.054zm-.824-3.451a4.819 4.819 0 0 1 1.197-.139c.58-.04 1.152.151 1.59.533.378.4.577.936.55 1.485a2.284 2.284 0 0 1-.437 1.459c-.41.52-1.039.816-1.7.802h-.365v2.948h-.835z"/><path id="fvpvb" d="M261.174 133.81c0-.439-.033-.953-.044-1.336h.73l.043.813h.022c.146-.495.58-.85 1.095-.897h.171v.843a.835.835 0 0 0-.171 0c-.522 0-.909.481-.993 1.094a3.161 3.161 0 0 0-.032.47v2.864h-.821z"/><path id="fvpvc" d="M264.288 135.06c0 .854.15 2.021.9 2.021s.845-1.218.845-2.02c0-.803-.139-2.01-.867-2.01s-.878 1.218-.878 2.01zm2.578 0c0 2-.93 2.67-1.718 2.67-.93 0-1.678-.842-1.678-2.659 0-1.89.843-2.681 1.73-2.681.886 0 1.666.865 1.666 2.67z"/><path id="fvpvd" d="M268.124 132.48l.653 2.918c.073.365.16.814.226 1.263h.033c.054-.427.138-.865.215-1.263l.627-2.918h.814l-1.346 5.17h-.73l-1.346-5.17z"/><path id="fvpve" d="M271.413 137.637v-5.152h.867v5.16zm.932-6.494a.467.467 0 0 1-.135.382.52.52 0 0 1-.394.15.52.52 0 0 1-.362-.167.47.47 0 0 1-.122-.365.478.478 0 0 1 .132-.37.522.522 0 0 1 .751-.002.47.47 0 0 1 .13.372z"/><path id="fvpvf" d="M275.679 134.444v-.344c-.055-.533-.365-1.004-.77-1.004-.682 0-.919.953-.919 1.99 0 1.038.277 1.97.875 1.97.256 0 .61-.14.792-.888.023-.113.034-.228.033-.344zm.81-4.194v6.154c0 .365.033.941.044 1.24h-.704l-.055-.649h-.033a1.19 1.19 0 0 1-1.094.73c-.876 0-1.507-.952-1.507-2.649 0-1.824.759-2.692 1.561-2.692.412-.006.785.24.942.62h.021v-2.754z"/><path id="fvpvg" d="M279.842 134.505c.022-1.024-.365-1.478-.77-1.478-.532 0-.813.783-.842 1.478zm-1.623.626c0 1.58.631 1.922 1.23 1.922.297.006.59-.064.853-.204l.128.609c-.353.17-.74.253-1.131.244-1.24 0-1.879-1.014-1.879-2.597 0-1.678.704-2.725 1.74-2.725s1.46 1.094 1.46 2.287v.46z"/><path id="fvpvh" d="M281.504 133.81c0-.439-.033-.953-.044-1.336h.73l.043.813h.04c.147-.495.58-.85 1.095-.897h.171v.843a.835.835 0 0 0-.171 0c-.522 0-.908.481-.992 1.094a3.161 3.161 0 0 0-.033.47v2.864h-.84z"/><path id="fvpvi" d="M284.034 136.787c.248.162.536.254.832.266a.697.697 0 0 0 .759-.73c0-.393-.139-.663-.664-1.013-.675-.438-1.036-.876-1.036-1.46a1.39 1.39 0 0 1 1.419-1.43c.329.001.65.093.93.267l-.222.62a1.218 1.218 0 0 0-.683-.226.635.635 0 0 0-.674.653c0 .364.127.547.642.897.598.387 1.068.854 1.068 1.569a1.46 1.46 0 0 1-1.55 1.54 1.773 1.773 0 0 1-1.025-.3z"/><path id="fvpvj" d="M289.557 134.04c0 1.482.29 2.953 1.202 2.953.912 0 1.18-1.566 1.18-2.975 0-1.344-.246-2.932-1.191-2.932-.945 0-1.194 1.49-1.194 2.953zm3.225-.05c0 2.703-.93 3.739-2.083 3.739s-1.999-1.273-1.999-3.695c0-2.423.854-3.674 2.116-3.674s1.966 1.332 1.966 3.63z"/><path id="fvpvk" d="M293.953 137.648v-4.538h-.653v-.624h.653v-.31a2.306 2.306 0 0 1 .46-1.557 1.397 1.397 0 0 1 1.036-.438c.22-.008.44.036.642.127l-.139.643a1.062 1.062 0 0 0-.449-.088c-.587 0-.73.631-.73 1.306v.317h.942v.631h-.941v4.542z"/><path id="fvpvl" d="M298.788 130.45v7.201h-.828v-7.201z"/><path id="fvpvm" d="M300.034 133.81c0-.61-.033-.92-.044-1.336h.73l.043.62h.022c.23-.44.69-.712 1.186-.704.73 0 1.251.533 1.251 1.784v3.473h-.824v-3.342c0-.609-.117-1.229-.73-1.229-.343 0-.675.288-.78.843a2.892 2.892 0 0 0-.033.46v3.257h-.821z"/><path id="fvpvn" d="M305.306 131.11v1.375h.992v.631h-.992v3.068c0 .672.244.854.543.854.112 0 .223-.01.332-.033l.033.631a1.802 1.802 0 0 1-.61.084c-.303.02-.6-.093-.813-.31-.204-.237-.31-.587-.31-1.302v-2.992h-.631v-.63h.631v-1.132z"/><path id="fvpvo" d="M309.132 134.505c.022-1.024-.365-1.478-.77-1.478-.532 0-.813.783-.842 1.478zm-1.623.626c0 1.58.631 1.922 1.23 1.922.297.006.59-.064.853-.204l.128.609c-.353.17-.74.253-1.131.244-1.24 0-1.879-1.014-1.879-2.597 0-1.678.704-2.725 1.74-2.725s1.46 1.094 1.46 2.287v.46z"/><path id="fvpvp" d="M310.81 130.25h.82v7.39h-.82z"/><path id="fvpvq" d="M312.85 130.25h.824v7.39h-.824z"/><path id="fvpvr" d="M314.903 137.637v-5.152h.864v5.16zm.922-6.494a.47.47 0 0 1-.134.382.51.51 0 0 1-.39.15.513.513 0 0 1-.365-.163.473.473 0 0 1-.124-.37.48.48 0 0 1 .13-.37.52.52 0 0 1 .751-.006.474.474 0 0 1 .132.377z"/><path id="fvpvs" d="M319.174 134.265a1.386 1.386 0 0 0-.044-.365c-.095-.365-.278-.791-.731-.791-.6 0-.922.799-.922 1.944 0 1.324.417 1.923.922 1.923.245 0 .567-.117.731-.73a1.82 1.82 0 0 0 .055-.47zm.851-1.784c0 .365-.043.825-.043 1.613v2.896c0 1.357-.172 1.868-.515 2.244-.358.375-.86.577-1.379.554a2.466 2.466 0 0 1-1.13-.255l.193-.642c.299.149.629.225.963.222.653 0 1.058-.405 1.058-1.583v-.525h-.022a1.05 1.05 0 0 1-.992.63c-.92 0-1.518-1.035-1.518-2.553 0-1.9.865-2.692 1.623-2.692.43 0 .814.268.963.671h.022l.044-.587z"/><path id="fvpvt" d="M323.322 134.505c.022-1.024-.365-1.478-.77-1.478-.532 0-.813.783-.842 1.478zm-1.623.626c0 1.58.631 1.922 1.23 1.922.297.006.59-.064.853-.204l.128.609c-.353.17-.74.253-1.131.244-1.24 0-1.879-1.014-1.879-2.597 0-1.678.704-2.725 1.74-2.725s1.46 1.094 1.46 2.287v.46z"/><path id="fvpvu" d="M325.004 133.81c0-.61-.033-.92-.044-1.336h.73l.043.62h.022c.23-.44.69-.712 1.186-.704.73 0 1.251.533 1.251 1.784v3.473h-.824v-3.342c0-.609-.117-1.229-.73-1.229-.343 0-.671.288-.78.843a2.918 2.918 0 0 0-.033.46v3.257H325z"/><path id="fvpvv" d="M331.843 137.525a1.773 1.773 0 0 1-.853.193c-1.131 0-1.89-.908-1.89-2.616 0-1.484.73-2.692 2.04-2.692.251-.003.501.052.729.16l-.16.672a1.343 1.343 0 0 0-.588-.139c-.824 0-1.197.982-1.197 2 0 1.207.46 1.933 1.219 1.933.207-.002.411-.05.598-.139z"/><path id="fvpvw" d="M334.692 134.505c.022-1.024-.365-1.478-.77-1.478-.532 0-.813.783-.842 1.478zm-1.623.626c0 1.58.631 1.922 1.23 1.922.297.006.59-.064.853-.204l.128.609c-.353.17-.74.253-1.131.244-1.24 0-1.879-1.014-1.879-2.597 0-1.678.704-2.725 1.74-2.725s1.46 1.094 1.46 2.287v.46z"/><path id="fvpvx" d="M338.667 134.04c0 1.482.288 2.953 1.197 2.953.908 0 1.174-1.566 1.174-2.975 0-1.344-.244-2.932-1.185-2.932-.941 0-1.186 1.49-1.186 2.953zm3.225-.05c0 2.703-.93 3.739-2.083 3.739s-1.999-1.273-1.999-3.695c0-2.423.854-3.674 2.116-3.674s1.966 1.332 1.966 3.63z"/><path id="fvpvy" d="M342.874 133.81c0-.61-.033-.92-.044-1.336h.73l.043.62h.022c.23-.44.69-.712 1.186-.704.73 0 1.251.533 1.251 1.784v3.473h-.824v-3.342c0-.609-.117-1.229-.73-1.229-.343 0-.671.288-.78.843a2.918 2.918 0 0 0-.033.46v3.257h-.821z"/><path id="fvpvz" d="M353.303 134.551c-.054-.952-.105-2.01-.072-2.82h-.044c-.16.8-.365 1.657-.577 2.5l-.89 3.363h-.525l-.843-3.236c-.233-.92-.448-1.806-.587-2.638h-.033c0 .843-.044 1.85-.084 2.875l-.138 3.046h-.73l.427-7.201h.886l.843 3.283c.244.952.427 1.656.576 2.477h.033c.139-.82.3-1.506.533-2.477l.813-3.283h.92l.415 7.201h-.773z"/><path id="fvpvA" d="M355.313 137.637v-5.152h.858v5.16zm.922-6.494a.47.47 0 0 1-.134.382.511.511 0 0 1-.39.15.513.513 0 0 1-.365-.163.473.473 0 0 1-.124-.37.48.48 0 0 1 .13-.37.52.52 0 0 1 .371-.162.51.51 0 0 1 .382.155.47.47 0 0 1 .13.378z"/><path id="fvpvB" d="M359.563 134.444v-.344c-.055-.533-.364-1.004-.768-1.004-.68 0-.916.953-.916 1.99 0 1.038.276 1.97.873 1.97.254 0 .607-.14.79-.888a1.63 1.63 0 0 0 .032-.344zm.816-4.194v6.154c0 .365.033.941.044 1.24h-.704l-.055-.649h-.033a1.19 1.19 0 0 1-1.094.73c-.876 0-1.507-.952-1.507-2.649 0-1.824.759-2.692 1.558-2.692.41-.006.784.24.94.62h.023v-2.754z"/><path id="fvpvC" d="M363.84 134.444v-.344c-.054-.533-.365-1.004-.771-1.004-.685 0-.922.953-.922 1.99 0 1.038.278 1.97.878 1.97.256 0 .61-.14.794-.888.023-.113.034-.228.032-.344zm.812-4.194v6.154c0 .365.032.941.043 1.24H364l-.055-.649h-.033a1.19 1.19 0 0 1-1.094.73c-.876 0-1.507-.952-1.507-2.649 0-1.824.759-2.692 1.558-2.692.41-.006.784.24.94.62h.023v-2.754z"/><path id="fvpvD" d="M365.82 130.25h.82v7.39h-.82z"/><path id="fvpvE" d="M370.042 134.505c.022-1.024-.365-1.478-.77-1.478-.532 0-.813.783-.842 1.478zm-1.623.626c0 1.58.631 1.922 1.23 1.922.297.006.59-.064.853-.204l.128.609c-.353.17-.74.253-1.131.244-1.24 0-1.879-1.014-1.879-2.597 0-1.678.704-2.725 1.74-2.725s1.46 1.094 1.46 2.287v.46z"/><path id="fvpvF" d="M376.088 134.23h-1.805v2.703h2.05v.73h-2.853v-7.213h2.743v.73h-1.922v2.37h1.806z"/><path id="fvpvG" d="M379.055 134.972c-.427 0-1.419.073-1.419 1.196 0 .672.343.92.631.92.365 0 .672-.267.77-.78.017-.096.024-.193.022-.29zm.117 2.67l-.055-.543h-.033a1.164 1.164 0 0 1-1.025.63c-.693 0-1.229-.587-1.229-1.458 0-1.295 1.036-1.872 2.189-1.883v-.16c0-.693-.172-1.175-.825-1.175a1.554 1.554 0 0 0-.853.266l-.183-.576c.362-.228.78-.347 1.208-.343 1.036 0 1.485.682 1.485 1.85v2.232c-.01.393.008.785.054 1.175z"/><path id="fvpvH" d="M380.884 136.787c.248.162.536.254.832.266a.697.697 0 0 0 .759-.73c0-.393-.139-.663-.664-1.013-.671-.438-1.036-.876-1.036-1.46a1.39 1.39 0 0 1 1.419-1.43c.329.001.65.093.93.267l-.222.62c-.2-.142-.438-.22-.683-.226a.635.635 0 0 0-.674.653c0 .364.127.547.642.897.598.387 1.068.854 1.068 1.569a1.46 1.46 0 0 1-1.55 1.54 1.773 1.773 0 0 1-1.025-.3z"/><path id="fvpvI" d="M385.116 131.11v1.375h.992v.631h-.992v3.068c0 .672.244.854.543.854.112.001.223-.01.332-.033l.033.631a1.798 1.798 0 0 1-.61.084c-.303.02-.6-.093-.813-.31-.204-.237-.31-.587-.31-1.302v-2.992h-.631v-.63h.631v-1.132z"/><path id="fvpvJ" d="M388.412 136.696c.315.184.672.284 1.036.289a1.127 1.127 0 0 0 1.197-1.219c0-.664-.383-1.069-.952-1.496-.57-.426-1.357-1.068-1.357-1.999a1.824 1.824 0 0 1 1.9-1.89c.357-.009.709.084 1.015.267l-.205.704a1.503 1.503 0 0 0-.853-.248.992.992 0 0 0-1.033 1.014c0 .73.365.992 1.058 1.485.865.61 1.251 1.273 1.251 2.072a1.93 1.93 0 0 1-2.02 2.02 2.426 2.426 0 0 1-1.219-.31z"/><path id="fvpvK" d="M394.645 134.505c.022-1.024-.367-1.478-.774-1.478-.536 0-.82.783-.848 1.478zm-1.626.626c0 1.58.631 1.922 1.23 1.922.297.006.59-.064.853-.204l.128.609c-.353.17-.74.253-1.131.244-1.24 0-1.879-1.014-1.879-2.597 0-1.678.704-2.725 1.74-2.725s1.46 1.094 1.46 2.287v.46z"/><path id="fvpvL" d="M398.843 137.525a1.773 1.773 0 0 1-.853.193c-1.131 0-1.89-.908-1.89-2.616 0-1.484.748-2.692 2.04-2.692.252-.003.501.052.729.16l-.16.672a1.331 1.331 0 0 0-.588-.139c-.824 0-1.197.982-1.197 2 0 1.207.46 1.933 1.219 1.933.207-.002.411-.05.598-.139z"/><path id="fvpvM" d="M402.692 136.232c0 .576.033 1.025.043 1.412h-.73l-.054-.544h-.014a1.36 1.36 0 0 1-1.095.631c-.908 0-1.262-.704-1.262-1.988v-3.283h.824v3.152c0 .81.128 1.412.694 1.412a.799.799 0 0 0 .73-.683c.031-.154.046-.312.043-.47v-3.393h.82z"/><path id="fvpvN" d="M403.834 133.81c0-.439-.033-.953-.044-1.336h.73l.043.813h.022c.146-.495.58-.85 1.095-.897h.171v.843a.835.835 0 0 0-.171 0c-.526 0-.909.481-.993 1.094a3.236 3.236 0 0 0-.032.47v2.864h-.825z"/><path id="fvpvO" d="M406.493 137.637v-5.152h.864v5.16zm.922-6.494a.47.47 0 0 1-.134.382.511.511 0 0 1-.39.15.513.513 0 0 1-.365-.163.473.473 0 0 1-.124-.37.48.48 0 0 1 .13-.37.52.52 0 0 1 .371-.162.51.51 0 0 1 .382.155.47.47 0 0 1 .13.378z"/><path id="fvpvP" d="M409.466 131.11v1.375h.992v.631h-.992v3.068c0 .672.244.854.543.854.112 0 .223-.01.332-.033l.033.631a1.798 1.798 0 0 1-.61.084c-.303.02-.6-.093-.813-.31-.204-.237-.31-.587-.31-1.302v-2.992h-.631v-.63h.631v-1.132z"/><path id="fvpvQ" d="M411.715 132.48l.682 2.97c.095.404.15.747.215 1.068h.022c.055-.288.138-.682.226-1.058l.61-2.98h.813l-.843 3.323c-.32 1.306-.671 2.554-1.284 3.335a2.834 2.834 0 0 1-.93.791l-.3-.704c.284-.167.532-.39.73-.653.202-.261.36-.553.47-.864a.73.73 0 0 0 .034-.45l-1.31-4.778z"/><path id="fvpvR" d="M419.078 134.831l-.365-1.824a33.383 33.383 0 0 1-.288-1.645h-.044a43.258 43.258 0 0 1-.288 1.645l-.365 1.824zm-1.485.66l-.481 2.156h-.792l1.663-7.197h.909l1.601 7.201h-.81l-.481-2.156z"/><path id="fvpvS" d="M421.264 133.81c0-.61-.033-.92-.044-1.336h.73l.043.62h.022c.23-.44.69-.712 1.186-.704.73 0 1.251.533 1.251 1.784v3.473h-.82v-3.342c0-.609-.117-1.229-.73-1.229-.343 0-.675.288-.78.843a2.842 2.842 0 0 0-.034.46v3.257h-.824z"/><path id="fvpvT" d="M427.899 134.444v-.344c-.055-.533-.365-1.004-.77-1.004-.682 0-.919.953-.919 1.99 0 1.038.277 1.97.875 1.97.256 0 .61-.14.792-.888.023-.113.034-.228.033-.344zm.814-4.194v6.154c0 .365.032.941.043 1.24h-.707l-.055-.649h-.033a1.19 1.19 0 0 1-1.094.73c-.876 0-1.507-.952-1.507-2.649 0-1.824.759-2.692 1.558-2.692.41-.005.783.24.94.62h.023v-2.754z"/><path id="fvpvU" d="M432.429 136.974c.102.017.205.024.309.022.904 0 1.775-.653 1.775-3.1 0-1.825-.552-2.81-1.703-2.81a1.485 1.485 0 0 0-.385.044zm-.82-6.42a3.914 3.914 0 0 1 1.094-.139 2.408 2.408 0 0 1 1.689.544c.554.481.97 1.412.97 2.918 0 1.645-.405 2.554-.865 3.035a2.52 2.52 0 0 1-1.988.781 4.695 4.695 0 0 1-.919-.073z"/><path id="fvpvV" d="M438.572 134.505c.022-1.024-.365-1.478-.77-1.478-.532 0-.813.783-.842 1.478zm-1.623.626c0 1.58.631 1.922 1.23 1.922.297.006.59-.064.853-.204l.128.609c-.353.17-.74.253-1.131.244-1.24 0-1.879-1.014-1.879-2.597 0-1.678.704-2.725 1.74-2.725s1.46 1.094 1.46 2.287v.46z"/><path id="fvpvW" d="M440.433 137.648v-4.538h-.653v-.624h.653v-.31a2.306 2.306 0 0 1 .46-1.557 1.397 1.397 0 0 1 1.036-.438c.22-.008.44.036.642.128l-.139.642a1.069 1.069 0 0 0-.449-.088c-.587 0-.73.631-.73 1.306v.317h.942v.631h-.938v4.542z"/><path id="fvpvX" d="M444.864 134.508c.022-1.024-.365-1.478-.77-1.478-.532 0-.813.782-.842 1.478zm-1.623.625c0 1.58.63 1.923 1.23 1.923.302.011.602-.057.87-.197l.129.609c-.353.17-.74.253-1.131.244-1.24 0-1.879-1.014-1.879-2.597 0-1.678.704-2.725 1.74-2.725s1.46 1.094 1.46 2.287v.46z"/><path id="fvpvY" d="M446.544 133.81c0-.61-.033-.92-.044-1.336h.73l.043.62h.022c.23-.44.69-.712 1.186-.704.73 0 1.251.533 1.251 1.784v3.473h-.82v-3.342c0-.609-.117-1.229-.73-1.229-.343 0-.675.288-.78.843a2.794 2.794 0 0 0-.034.46v3.257h-.82z"/><path id="fvpvZ" d="M453.393 137.525a1.773 1.773 0 0 1-.853.193c-1.131 0-1.89-.908-1.89-2.616 0-1.484.748-2.692 2.04-2.692.252-.003.501.052.729.16l-.16.672a1.331 1.331 0 0 0-.588-.139c-.824 0-1.197.982-1.197 2 0 1.207.46 1.933 1.219 1.933.207-.002.411-.05.598-.139z"/><path id="fvpvaa" d="M456.246 134.505c.022-1.024-.367-1.478-.775-1.478-.535 0-.818.783-.847 1.478zm-1.633.626c0 1.58.63 1.922 1.229 1.922.297.006.591-.064.854-.204l.127.609c-.353.17-.742.253-1.134.244-1.24 0-1.879-1.014-1.879-2.597 0-1.678.704-2.725 1.74-2.725s1.46 1.094 1.46 2.287v.46z"/><path id="fvpvab" d="M462.011 134.811l-.366-1.816a32.954 32.954 0 0 1-.29-1.638h-.044a51.272 51.272 0 0 1-.29 1.638l-.366 1.816zm-1.488.674l-.481 2.156h-.792l1.645-7.201h.909l1.601 7.201h-.813l-.464-2.156z"/><path id="fvpvac" d="M466.661 137.648v-4.538h-1.557v4.542h-.821v-4.542h-.653v-.623h.653v-.3a2.189 2.189 0 0 1 .467-1.524c.283-.28.671-.427 1.069-.405.181 0 .362.033.532.094l-.16.65a.989.989 0 0 0-.383-.073c-.533 0-.704.438-.704 1.251v.307h1.557v-.31a2.31 2.31 0 0 1 .46-1.558c.266-.282.638-.441 1.025-.438a1.46 1.46 0 0 1 .653.128l-.138.642a1.094 1.094 0 0 0-.45-.088c-.586 0-.729.631-.729 1.306v.318h.941v.63h-.94v4.542z"/><path id="fvpvad" d="M470.858 134.972c-.428 0-1.424.073-1.424 1.196 0 .672.344.92.633.92.366 0 .674-.267.773-.78a1.41 1.41 0 0 0 .022-.29zm.114 2.67l-.055-.543h-.033a1.164 1.164 0 0 1-1.025.63c-.693 0-1.229-.587-1.229-1.458 0-1.295 1.036-1.872 2.189-1.883v-.16c0-.693-.172-1.175-.825-1.175a1.554 1.554 0 0 0-.853.266l-.183-.576c.362-.228.78-.347 1.208-.343 1.036 0 1.485.682 1.485 1.85v2.232c-.01.393.008.785.054 1.175z"/><path id="fvpvae" d="M472.823 137.637v-5.152h.864v5.16zm.922-6.494a.47.47 0 0 1-.134.382.511.511 0 0 1-.39.15.513.513 0 0 1-.365-.163.473.473 0 0 1-.124-.37.48.48 0 0 1 .13-.37.52.52 0 0 1 .371-.162.51.51 0 0 1 .382.155.47.47 0 0 1 .13.378z"/><path id="fvpvaf" d="M474.774 133.81c0-.439-.033-.953-.044-1.336h.73l.043.813h.022c.146-.495.58-.85 1.095-.897h.171v.843a.838.838 0 0 0-.171 0c-.522 0-.909.481-.993 1.094a3.041 3.041 0 0 0-.032.47v2.864h-.821z"/><path id="fvpvag" d="M477.294 136.787c.248.162.536.254.832.266a.7.7 0 0 0 .759-.73c0-.393-.139-.663-.664-1.013-.671-.438-1.036-.876-1.036-1.46a1.39 1.39 0 0 1 1.419-1.43c.329.001.65.093.93.267l-.222.62c-.2-.142-.438-.22-.683-.226a.635.635 0 0 0-.674.653c0 .364.127.547.642.897.598.387 1.068.854 1.068 1.569a1.46 1.46 0 0 1-1.55 1.54 1.773 1.773 0 0 1-1.025-.3z"/><path id="fvpvah" d="M268.449 92.72v5.793h-4.469v23.158h-7.53V98.513H252V92.72z"/><path id="fvpvai" d="M277.17 110.387c-1.155.847-1.825 1.557-2.01 2.13a8.441 8.441 0 0 0-.292 2.456c0 1.216.08 2.009.24 2.378.173.37.562.588.967.54a.886.886 0 0 0 .887-.42c.136-.279.204-1.014.204-2.206zm-2.302-3.254h-6.778v-1.594c0-1.836.212-3.251.635-4.246.423-.995 1.274-1.874 2.553-2.638 1.275-.763 2.932-1.145 4.973-1.145 2.432 0 4.274.432 5.526 1.295a5.052 5.052 0 0 1 2.237 3.181c.243 1.257.364 3.848.364 7.77v11.915h-7.026v-2.116a4.407 4.407 0 0 1-4.202 2.553 6.107 6.107 0 0 1-3.477-1.065c-1.055-.707-1.583-2.26-1.583-4.658v-1.96c0-1.775.28-2.984.839-3.629.56-.644 1.948-1.396 4.166-2.254 2.371-.93 3.64-1.556 3.809-1.88.167-.323.256-.977.266-1.962 0-1.24-.093-2.048-.277-2.422a.952.952 0 0 0-.92-.562c-.486 0-.79.158-.912.474-.121.317-.18 1.136-.178 2.46z"/><path id="fvpvaj" d="M302.833 106.9h-6.814v-2.736a5.37 5.37 0 0 0-.234-1.94.857.857 0 0 0-.857-.511.839.839 0 0 0-.839.445c-.143.3-.215.967-.215 2.003v11.195c-.036.651.073 1.302.32 1.905.158.385.533.637.95.634a.974.974 0 0 0 .995-.66c.173-.44.26-1.274.26-2.502v-2.828h6.438a37.337 37.337 0 0 1-.204 4.265 6.84 6.84 0 0 1-1.197 2.918 6.402 6.402 0 0 1-2.637 2.255 9.485 9.485 0 0 1-4.013.759c-2.038 0-3.653-.35-4.845-1.047a5.753 5.753 0 0 1-2.531-2.919c-.487-1.257-.73-3.042-.73-5.355v-6.756c0-2.014.203-3.534.61-4.56.405-1.027 1.27-1.94 2.593-2.743a9.12 9.12 0 0 1 4.797-1.208 9.237 9.237 0 0 1 4.826 1.197 5.88 5.88 0 0 1 2.663 3.02c.443 1.216.664 2.94.664 5.17z"/><path id="fvpvak" d="M312.595 94.78v3.736h1.948v3.757h-1.948v12.702c0 1.562.08 2.432.241 2.612.16.18.83.27 2.01.27v3.816h-2.918a20.929 20.929 0 0 1-3.524-.204 3.754 3.754 0 0 1-1.86-.949 3.14 3.14 0 0 1-1.004-1.696c-.131-.637-.197-2.137-.197-4.498v-12.038H303.8v-3.772h1.554V94.78z"/><path id="fvpval" d="M323.575 97.94v23.712h-7.435V97.94zm0-5.22v3.772h-7.435V92.72z"/><path id="fvpvam" d="M342.13 106.9h-6.81v-2.735a5.366 5.366 0 0 0-.234-1.941.857.857 0 0 0-.857-.51.839.839 0 0 0-.839.444c-.143.3-.215.967-.215 2.003v11.196c-.036.65.073 1.301.32 1.904.158.383.532.632.946.631.442.032.85-.24.992-.66.173-.44.259-1.275.259-2.503v-2.823h6.439a37.337 37.337 0 0 1-.205 4.264 6.84 6.84 0 0 1-1.196 2.919 6.402 6.402 0 0 1-2.641 2.25 9.485 9.485 0 0 1-4.013.76c-2.038 0-3.653-.35-4.845-1.048a5.753 5.753 0 0 1-2.531-2.918c-.487-1.257-.73-3.043-.73-5.355v-6.753c0-2.013.203-3.533.61-4.56.405-1.026 1.27-1.94 2.593-2.743a9.12 9.12 0 0 1 4.826-1.208 9.237 9.237 0 0 1 4.82 1.197 5.88 5.88 0 0 1 2.662 3.02c.433 1.217.65 2.94.65 5.17z"/><path id="fvpvan" d="M353.035 110.387c-1.16.847-1.833 1.557-2.019 2.13a8.403 8.403 0 0 0-.278 2.467c0 1.216.08 2.009.242 2.378a.95.95 0 0 0 .96.53.892.892 0 0 0 .89-.42c.137-.28.205-1.016.205-2.207zm-2.297-3.254h-6.778v-1.594c0-1.836.212-3.251.635-4.246.423-.995 1.274-1.874 2.553-2.638 1.275-.763 2.932-1.145 4.973-1.145 2.432 0 4.273.432 5.523 1.295a5.049 5.049 0 0 1 2.236 3.181c.243 1.257.365 3.848.365 7.77v11.915h-7.023v-2.116a4.407 4.407 0 0 1-4.202 2.553 6.107 6.107 0 0 1-3.477-1.065c-1.055-.707-1.583-2.26-1.583-4.658v-1.96c0-1.775.28-2.984.839-3.629.56-.644 1.948-1.396 4.166-2.254 2.371-.93 3.64-1.556 3.809-1.88.167-.323.251-.978.251-1.965 0-1.24-.092-2.048-.277-2.423a.952.952 0 0 0-.92-.561c-.486 0-.79.158-.911.474-.122.316-.181 1.135-.179 2.458z"/><path id="fvpvao" d="M370.178 92.72v28.95h-7.438V92.72z"/><path id="fvpvap" d="M386.98 97.674v6.435c.847 0 1.44-.122 1.78-.365.341-.243.511-.997.511-2.262v-1.575c0-.917-.163-1.525-.488-1.824-.326-.3-.927-.436-1.803-.409zm-7.54-4.954h5.33c3.55 0 5.956.137 7.215.412a4.972 4.972 0 0 1 3.076 2.101c.79 1.126 1.187 2.924 1.189 5.392 0 2.252-.28 3.766-.84 4.542-.558.776-1.666 1.24-3.322 1.394 1.488.37 2.489.864 3.002 1.484.441.492.767 1.075.956 1.708.126.518.188 1.945.186 4.282v7.636h-6.979v-9.617c0-1.549-.121-2.508-.365-2.878-.243-.37-.879-.556-1.908-.558v13.053h-7.54z"/><path id="fvpvaq" d="M408.057 106.362v-1.736c0-1.216-.066-2.01-.197-2.379a.777.777 0 0 0-.806-.536c-.501 0-.811.152-.93.456-.12.304-.18 1.123-.183 2.459v1.736zm7.241 3.867h-9.357v5.125c0 1.073.078 1.765.234 2.076a.905.905 0 0 0 .897.46c.458.045.896-.201 1.094-.617.185-.41.278-1.206.278-2.386v-3.126h6.85v1.751a15.726 15.726 0 0 1-.277 3.378 6.89 6.89 0 0 1-1.295 2.521 6.311 6.311 0 0 1-2.582 2.01 10 10 0 0 1-3.926.671 11.418 11.418 0 0 1-4.042-.66 6.472 6.472 0 0 1-2.728-1.824 6.588 6.588 0 0 1-1.35-2.554 16.417 16.417 0 0 1-.365-4.03v-6.932c0-2.074.28-3.711.84-4.91a5.771 5.771 0 0 1 2.753-2.754 9.715 9.715 0 0 1 4.4-.956c2.026 0 3.698.384 5.016 1.153a6.344 6.344 0 0 1 2.772 3.057c.53 1.27.796 3.054.796 5.355z"/><path id="fvpvar" d="M427.079 104.84c0-1.458-.054-2.346-.161-2.662-.108-.316-.408-.47-.902-.464a.88.88 0 0 0-.923.537c-.14.357-.21 1.222-.21 2.593v9.85c0 1.43.073 2.324.217 2.681.164.36.546.57.938.515.467 0 .758-.165.872-.493a9.74 9.74 0 0 0 .173-2.386zm-2.067-6.901l-.124 2.097a6.705 6.705 0 0 1 2.126-1.897 5.264 5.264 0 0 1 2.554-.627 4.742 4.742 0 0 1 2.918.901 3.783 3.783 0 0 1 1.529 2.083c.204.788.305 2.126.303 4.013v9.988c0 2.157-.128 3.692-.383 4.604a3.834 3.834 0 0 1-1.573 2.189c-.85.559-1.853.843-2.87.813a5.107 5.107 0 0 1-2.485-.627 6.76 6.76 0 0 1-2.094-1.864v5.435h-7.223V97.939z"/><path id="fvpvas" d="M445.773 104.485c0-1.215-.065-1.981-.196-2.297a.81.81 0 0 0-.836-.474.842.842 0 0 0-.857.492c-.143.316-.215 1.082-.215 2.297v10.688c0 1.121.072 1.85.215 2.188a.973.973 0 0 0 1.682.044 6.1 6.1 0 0 0 .203-2.002zm7.227 1.79v5.812a24.595 24.595 0 0 1-.313 4.713 6.588 6.588 0 0 1-1.38 2.79 6.202 6.202 0 0 1-2.706 1.916c-1.22.43-2.508.64-3.801.616a13.567 13.567 0 0 1-4.06-.529 5.523 5.523 0 0 1-2.583-1.59 6.289 6.289 0 0 1-1.314-2.576 19.386 19.386 0 0 1-.394-4.534v-6.1c0-2.205.243-3.927.73-5.165a5.939 5.939 0 0 1 2.575-2.988c1.24-.751 2.822-1.127 4.743-1.127a10.85 10.85 0 0 1 4.173.73 6.545 6.545 0 0 1 3.987 4.282c.273 1.23.388 2.491.343 3.75z"/><path id="fvpvat" d="M462.61 97.94l-.288 3.12c1.048-2.236 2.568-3.419 4.56-3.55v8.343c-1.323 0-2.296.179-2.918.536a2.25 2.25 0 0 0-1.146 1.492c-.143.637-.215 2.106-.215 4.407v9.383h-7.223V97.959z"/><path id="fvpvau" d="M476.774 94.78v3.736h1.948v3.757h-1.948v12.702c0 1.562.08 2.432.24 2.612.16.18.83.27 2.01.27v3.816h-2.918a20.936 20.936 0 0 1-3.524-.204 3.754 3.754 0 0 1-1.86-.949 3.141 3.141 0 0 1-1-1.696c-.131-.637-.197-2.137-.197-4.498v-12.038h-1.565v-3.772h1.554V94.78z"/></defs><g><g transform="translate(-252 -92)"><g><g><use fill="#555759" xlink:href="#fvpva"/></g><g><use fill="#555759" xlink:href="#fvpvb"/></g><g><use fill="#555759" xlink:href="#fvpvc"/></g><g><use fill="#555759" xlink:href="#fvpvd"/></g><g><use fill="#555759" xlink:href="#fvpve"/></g><g><use fill="#555759" xlink:href="#fvpvf"/></g><g><use fill="#555759" xlink:href="#fvpvg"/></g><g><use fill="#555759" xlink:href="#fvpvh"/></g><g><use fill="#555759" xlink:href="#fvpvi"/></g><g><use fill="#555759" xlink:href="#fvpvj"/></g><g><use fill="#555759" xlink:href="#fvpvk"/></g><g><use fill="#555759" xlink:href="#fvpvl"/></g><g><use fill="#555759" xlink:href="#fvpvm"/></g><g><use fill="#555759" xlink:href="#fvpvn"/></g><g><use fill="#555759" xlink:href="#fvpvo"/></g><g><use fill="#555759" xlink:href="#fvpvp"/></g><g><use fill="#555759" xlink:href="#fvpvq"/></g><g><use fill="#555759" xlink:href="#fvpvr"/></g><g><use fill="#555759" xlink:href="#fvpvs"/></g><g><use fill="#555759" xlink:href="#fvpvt"/></g><g><use fill="#555759" xlink:href="#fvpvu"/></g><g><use fill="#555759" xlink:href="#fvpvv"/></g><g><use fill="#555759" xlink:href="#fvpvw"/></g><g><use fill="#555759" xlink:href="#fvpvx"/></g><g><use fill="#555759" xlink:href="#fvpvy"/></g><g><use fill="#555759" xlink:href="#fvpvz"/></g><g><use fill="#555759" xlink:href="#fvpvA"/></g><g><use fill="#555759" xlink:href="#fvpvB"/></g><g><use fill="#555759" xlink:href="#fvpvC"/></g><g><use fill="#555759" xlink:href="#fvpvD"/></g><g><use fill="#555759" xlink:href="#fvpvE"/></g><g><use fill="#555759" xlink:href="#fvpvF"/></g><g><use fill="#555759" xlink:href="#fvpvG"/></g><g><use fill="#555759" xlink:href="#fvpvH"/></g><g><use fill="#555759" xlink:href="#fvpvI"/></g><g><use fill="#555759" xlink:href="#fvpvJ"/></g><g><use fill="#555759" xlink:href="#fvpvK"/></g><g><use fill="#555759" xlink:href="#fvpvL"/></g><g><use fill="#555759" xlink:href="#fvpvM"/></g><g><use fill="#555759" xlink:href="#fvpvN"/></g><g><use fill="#555759" xlink:href="#fvpvO"/></g><g><use fill="#555759" xlink:href="#fvpvP"/></g><g><use fill="#555759" xlink:href="#fvpvQ"/></g><g><use fill="#555759" xlink:href="#fvpvR"/></g><g><use fill="#555759" xlink:href="#fvpvS"/></g><g><use fill="#555759" xlink:href="#fvpvT"/></g><g><use fill="#555759" xlink:href="#fvpvU"/></g><g><use fill="#555759" xlink:href="#fvpvV"/></g><g><use fill="#555759" xlink:href="#fvpvW"/></g><g><use fill="#555759" xlink:href="#fvpvX"/></g><g><use fill="#555759" xlink:href="#fvpvY"/></g><g><use fill="#555759" xlink:href="#fvpvZ"/></g><g><use fill="#555759" xlink:href="#fvpvaa"/></g><g><use fill="#555759" xlink:href="#fvpvab"/></g><g><use fill="#555759" xlink:href="#fvpvac"/></g><g><use fill="#555759" xlink:href="#fvpvad"/></g><g><use fill="#555759" xlink:href="#fvpvae"/></g><g><use fill="#555759" xlink:href="#fvpvaf"/></g><g><use fill="#555759" xlink:href="#fvpvag"/></g></g><g><g><use fill="#1d4f90" xlink:href="#fvpvah"/></g><g><use fill="#1d4f90" xlink:href="#fvpvai"/></g><g><use fill="#1d4f90" xlink:href="#fvpvaj"/></g><g><use fill="#1d4f90" xlink:href="#fvpvak"/></g><g><use fill="#1d4f90" xlink:href="#fvpval"/></g><g><use fill="#1d4f90" xlink:href="#fvpvam"/></g><g><use fill="#1d4f90" xlink:href="#fvpvan"/></g><g><use fill="#1d4f90" xlink:href="#fvpvao"/></g><g><use fill="#555759" xlink:href="#fvpvap"/></g><g><use fill="#555759" xlink:href="#fvpvaq"/></g><g><use fill="#555759" xlink:href="#fvpvar"/></g><g><use fill="#555759" xlink:href="#fvpvas"/></g><g><use fill="#555759" xlink:href="#fvpvat"/></g><g><use fill="#555759" xlink:href="#fvpvau"/></g></g></g></g></svg>